<svg height="1982" width="720" xmlns="http://www.w3.org/2000/svg">
<rect height="1982" fill="#555" width="720"></rect>
<text fill="#7f7" font-family="Courier New" font-size="12" xml:space="preserve">
<tspan x="10" y="26">└─┬ gulp-cache-bust@1.1.0 </tspan>
<tspan x="10" y="42">  ├─┬ cachebust@2.0.1 </tspan>
<tspan x="10" y="58">  │ ├─┬ cheerio@0.19.0 </tspan>
<tspan x="10" y="74">  │ │ ├─┬ css-select@1.0.0 </tspan>
<tspan x="10" y="90">  │ │ │ ├── boolbase@1.0.0 </tspan>
<tspan x="10" y="106">  │ │ │ ├── css-what@1.0.0 </tspan>
<tspan x="10" y="122">  │ │ │ ├── domutils@1.4.3 </tspan>
<tspan x="10" y="138">  │ │ │ └── nth-check@1.0.1 </tspan>
<tspan x="10" y="154">  │ │ ├─┬ dom-serializer@0.1.0 </tspan>
<tspan x="10" y="170">  │ │ │ └── domelementtype@1.1.3 </tspan>
<tspan x="10" y="186">  │ │ ├── entities@1.1.1 </tspan>
<tspan x="10" y="202">  │ │ ├─┬ htmlparser2@3.8.3 </tspan>
<tspan x="10" y="218">  │ │ │ ├── domelementtype@1.3.0 </tspan>
<tspan x="10" y="234">  │ │ │ ├── domhandler@2.3.0 </tspan>
<tspan x="10" y="250">  │ │ │ ├── domutils@1.5.1 </tspan>
<tspan x="10" y="266">  │ │ │ ├── entities@1.0.0 </tspan>
<tspan x="10" y="282">  │ │ │ └─┬ readable-stream@1.1.14 </tspan>
<tspan x="10" y="298">  │ │ │   └── isarray@0.0.1 </tspan>
<tspan x="10" y="314">  │ │ └── lodash@3.10.1 </tspan>
<tspan x="10" y="330">  │ └─┬ md5@2.2.1 </tspan>
<tspan x="10" y="346">  │   ├── charenc@0.0.2 </tspan>
<tspan x="10" y="362">  │   ├── crypt@0.0.2 </tspan>
<tspan x="10" y="378">  │   └── is-buffer@1.1.5 </tspan>
<tspan x="10" y="394">  ├── graceful-fs@4.1.11 </tspan>
<tspan x="10" y="410">  ├─┬ gulp-util@3.0.7 </tspan>
<tspan x="10" y="426">  │ ├── array-differ@1.0.0 </tspan>
<tspan x="10" y="442">  │ ├── array-uniq@1.0.3 </tspan>
<tspan x="10" y="458">  │ ├── beeper@1.1.1 </tspan>
<tspan x="10" y="474">  │ ├─┬ chalk@1.1.3 </tspan>
<tspan x="10" y="490">  │ │ ├── ansi-styles@2.2.1 </tspan>
<tspan x="10" y="506">  │ │ ├── escape-string-regexp@1.0.5 </tspan>
<tspan x="10" y="522">  │ │ ├─┬ has-ansi@2.0.0 </tspan>
<tspan x="10" y="538">  │ │ │ └── ansi-regex@2.1.1 </tspan>
<tspan x="10" y="554">  │ │ ├── strip-ansi@3.0.1 </tspan>
<tspan x="10" y="570">  │ │ └── supports-color@2.0.0 </tspan>
<tspan x="10" y="586">  │ ├─┬ dateformat@1.0.12 </tspan>
<tspan x="10" y="602">  │ │ ├── get-stdin@4.0.1 </tspan>
<tspan x="10" y="618">  │ │ └─┬ meow@3.7.0 </tspan>
<tspan x="10" y="634">  │ │   ├─┬ camelcase-keys@2.1.0 </tspan>
<tspan x="10" y="650">  │ │   │ └── camelcase@2.1.1 </tspan>
<tspan x="10" y="666">  │ │   ├── decamelize@1.2.0 </tspan>
<tspan x="10" y="682">  │ │   ├─┬ loud-rejection@1.6.0 </tspan>
<tspan x="10" y="698">  │ │   │ ├─┬ currently-unhandled@0.4.1 </tspan>
<tspan x="10" y="714">  │ │   │ │ └── array-find-index@1.0.2 </tspan>
<tspan x="10" y="730">  │ │   │ └── signal-exit@3.0.2 </tspan>
<tspan x="10" y="746">  │ │   ├── map-obj@1.0.1 </tspan>
<tspan x="10" y="762">  │ │   ├─┬ normalize-package-data@2.3.6 </tspan>
<tspan x="10" y="778">  │ │   │ ├── hosted-git-info@2.4.1 </tspan>
<tspan x="10" y="794">  │ │   │ ├─┬ is-builtin-module@1.0.0 </tspan>
<tspan x="10" y="810">  │ │   │ │ └── builtin-modules@1.1.1 </tspan>
<tspan x="10" y="826">  │ │   │ ├── semver@5.3.0 </tspan>
<tspan x="10" y="842">  │ │   │ └─┬ validate-npm-package-license@3.0.1 </tspan>
<tspan x="10" y="858">  │ │   │   ├─┬ spdx-correct@1.0.2 </tspan>
<tspan x="10" y="874">  │ │   │   │ └── spdx-license-ids@1.2.2 </tspan>
<tspan x="10" y="890">  │ │   │   └── spdx-expression-parse@1.0.4 </tspan>
<tspan x="10" y="906">  │ │   ├── object-assign@4.1.1 </tspan>
<tspan x="10" y="922">  │ │   ├─┬ read-pkg-up@1.0.1 </tspan>
<tspan x="10" y="938">  │ │   │ ├─┬ find-up@1.1.2 </tspan>
<tspan x="10" y="954">  │ │   │ │ └── path-exists@2.1.0 </tspan>
<tspan x="10" y="970">  │ │   │ └─┬ read-pkg@1.1.0 </tspan>
<tspan x="10" y="986">  │ │   │   ├─┬ load-json-file@1.1.0 </tspan>
<tspan x="10" y="1002">  │ │   │   │ ├─┬ parse-json@2.2.0 </tspan>
<tspan x="10" y="1018">  │ │   │   │ │ └─┬ error-ex@1.3.1 </tspan>
<tspan x="10" y="1034">  │ │   │   │ │   └── is-arrayish@0.2.1 </tspan>
<tspan x="10" y="1050">  │ │   │   │ └─┬ strip-bom@2.0.0 </tspan>
<tspan x="10" y="1066">  │ │   │   │   └── is-utf8@0.2.1 </tspan>
<tspan x="10" y="1082">  │ │   │   └── path-type@1.1.0 </tspan>
<tspan x="10" y="1098">  │ │   ├─┬ redent@1.0.0 </tspan>
<tspan x="10" y="1114">  │ │   │ ├─┬ indent-string@2.1.0 </tspan>
<tspan x="10" y="1130">  │ │   │ │ └─┬ repeating@2.0.1 </tspan>
<tspan x="10" y="1146">  │ │   │ │   └─┬ is-finite@1.0.2 </tspan>
<tspan x="10" y="1162">  │ │   │ │     └── number-is-nan@1.0.1 </tspan>
<tspan x="10" y="1178">  │ │   │ └── strip-indent@1.0.1 </tspan>
<tspan x="10" y="1194">  │ │   └── trim-newlines@1.0.0 </tspan>
<tspan x="10" y="1210">  │ ├─┬ fancy-log@1.3.0 </tspan>
<tspan x="10" y="1226">  │ │ └── time-stamp@1.0.1 </tspan>
<tspan x="10" y="1242">  │ ├─┬ gulplog@1.0.0 </tspan>
<tspan x="10" y="1258">  │ │ └── glogg@1.0.0 </tspan>
<tspan x="10" y="1274">  │ ├─┬ has-gulplog@0.1.0 </tspan>
<tspan x="10" y="1290">  │ │ └── sparkles@1.0.0 </tspan>
<tspan x="10" y="1306">  │ ├── lodash._reescape@3.0.0 </tspan>
<tspan x="10" y="1322">  │ ├── lodash._reevaluate@3.0.0 </tspan>
<tspan x="10" y="1338">  │ ├── lodash._reinterpolate@3.0.0 </tspan>
<tspan x="10" y="1354">  │ ├─┬ lodash.template@3.6.2 </tspan>
<tspan x="10" y="1370">  │ │ ├── lodash._basecopy@3.0.1 </tspan>
<tspan x="10" y="1386">  │ │ ├── lodash._basetostring@3.0.1 </tspan>
<tspan x="10" y="1402">  │ │ ├── lodash._basevalues@3.0.0 </tspan>
<tspan x="10" y="1418">  │ │ ├── lodash._isiterateecall@3.0.9 </tspan>
<tspan x="10" y="1434">  │ │ ├─┬ lodash.escape@3.2.0 </tspan>
<tspan x="10" y="1450">  │ │ │ └── lodash._root@3.0.1 </tspan>
<tspan x="10" y="1466">  │ │ ├─┬ lodash.keys@3.1.2 </tspan>
<tspan x="10" y="1482">  │ │ │ ├── lodash._getnative@3.9.1 </tspan>
<tspan x="10" y="1498">  │ │ │ ├── lodash.isarguments@3.1.0 </tspan>
<tspan x="10" y="1514">  │ │ │ └── lodash.isarray@3.0.4 </tspan>
<tspan x="10" y="1530">  │ │ ├── lodash.restparam@3.6.1 </tspan>
<tspan x="10" y="1546">  │ │ └── lodash.templatesettings@3.1.1 </tspan>
<tspan x="10" y="1562">  │ ├── minimist@1.2.0 </tspan>
<tspan x="10" y="1578">  │ ├─┬ multipipe@0.1.2 </tspan>
<tspan x="10" y="1594">  │ │ └── duplexer2@0.0.2 </tspan>
<tspan x="10" y="1610">  │ ├── object-assign@3.0.0 </tspan>
<tspan x="10" y="1626">  │ ├── replace-ext@0.0.1 </tspan>
<tspan x="10" y="1642">  │ └─┬ vinyl@0.5.3 </tspan>
<tspan x="10" y="1658">  │   ├── clone@1.0.2 </tspan>
<tspan x="10" y="1674">  │   └── clone-stats@0.0.1 </tspan>
<tspan x="10" y="1690">  ├── map-stream@0.1.0 </tspan>
<tspan x="10" y="1706">  ├─┬ temp-write@2.1.0 </tspan>
<tspan x="10" y="1722">  │ ├─┬ mkdirp@0.5.1 </tspan>
<tspan x="10" y="1738">  │ │ └── minimist@0.0.8 </tspan>
<tspan x="10" y="1754">  │ ├── os-tmpdir@1.0.2 </tspan>
<tspan x="10" y="1770">  │ ├── pify@2.3.0 </tspan>
<tspan x="10" y="1786">  │ ├─┬ pinkie-promise@2.0.1 </tspan>
<tspan x="10" y="1802">  │ │ └── pinkie@2.0.4 </tspan>
<tspan x="10" y="1818">  │ └── uuid@2.0.3 </tspan>
<tspan x="10" y="1834">  └─┬ through2@2.0.1 </tspan>
<tspan x="10" y="1850">    ├─┬ readable-stream@2.0.6 </tspan>
<tspan x="10" y="1866">    │ ├── core-util-is@1.0.2 </tspan>
<tspan x="10" y="1882">    │ ├── inherits@2.0.3 </tspan>
<tspan x="10" y="1898">    │ ├── isarray@1.0.0 </tspan>
<tspan x="10" y="1914">    │ ├── process-nextick-args@1.0.7 </tspan>
<tspan x="10" y="1930">    │ ├── string_decoder@0.10.31 </tspan>
<tspan x="10" y="1946">    │ └── util-deprecate@1.0.2 </tspan>
<tspan x="10" y="1962">    └── xtend@4.0.1</tspan>
</text>
</svg>
